<svg width="49" height="49" viewBox="0 0 49 49" fill="none" xmlns="http://www.w3.org/2000/svg">
<path d="M0 5C0 2.23858 2.23858 0 5 0H44C46.7614 0 49 2.23858 49 5V44C49 46.7614 46.7614 49 44 49H5C2.23858 49 0 46.7614 0 44V5Z" fill="#29417D"/>
<path d="M14.2812 39.7812C13.3703 39.7812 12.5902 39.4572 11.941 38.809C11.2928 38.1598 10.9688 37.3797 10.9688 36.4688V13.2812C10.9688 12.3703 11.2928 11.5902 11.941 10.941C12.5902 10.2928 13.3703 9.96875 14.2812 9.96875H37.4688C38.3797 9.96875 39.1598 10.2928 39.809 10.941C40.4572 11.5902 40.7812 12.3703 40.7812 13.2812V36.4688C40.7812 37.3797 40.4572 38.1598 39.809 38.809C39.1598 39.4572 38.3797 39.7812 37.4688 39.7812H14.2812ZM22.5625 36.4688V26.5312H14.2812V36.4688H22.5625ZM25.875 36.4688H37.4688V26.5312H25.875V36.4688ZM14.2812 23.2188H37.4688V13.2812H14.2812V23.2188Z" fill="white"/>
</svg>
