<svg width="49" height="49" viewBox="0 0 49 49" fill="none" xmlns="http://www.w3.org/2000/svg">
<rect width="49" height="49" rx="5" fill="#29417D"/>
<g clip-path="url(#clip0_3900_5)">
<path d="M38.3757 24.8392C38.3757 16.3754 31.8082 10.625 24.5007 10.625C17.2702 10.625 10.6257 16.2521 10.6257 24.9317C9.70065 25.4558 9.08398 26.4425 9.08398 27.5833V30.6667C9.08398 32.3625 10.4715 33.75 12.1673 33.75H13.709V24.3458C13.709 18.3796 18.5344 13.5542 24.5007 13.5542C30.4669 13.5542 35.2923 18.3796 35.2923 24.3458V35.2917H22.959V38.375H35.2923C36.9882 38.375 38.3757 36.9875 38.3757 35.2917V33.4108C39.2852 32.9329 39.9173 31.9925 39.9173 30.8825V27.3367C39.9173 26.2575 39.2852 25.3171 38.3757 24.8392Z" fill="white"/>
<path d="M19.8757 27.5833C20.7271 27.5833 21.4173 26.8931 21.4173 26.0417C21.4173 25.1902 20.7271 24.5 19.8757 24.5C19.0242 24.5 18.334 25.1902 18.334 26.0417C18.334 26.8931 19.0242 27.5833 19.8757 27.5833Z" fill="white"/>
<path d="M29.1257 27.5833C29.9771 27.5833 30.6673 26.8931 30.6673 26.0417C30.6673 25.1902 29.9771 24.5 29.1257 24.5C28.2742 24.5 27.584 25.1902 27.584 26.0417C27.584 26.8931 28.2742 27.5833 29.1257 27.5833Z" fill="white"/>
<path d="M33.7514 23.0046C33.0114 18.6108 29.1881 15.25 24.5785 15.25C19.9073 15.25 14.8814 19.1196 15.2823 25.1937C19.0902 23.6367 21.9577 20.245 22.7748 16.1133C24.7944 20.1679 28.9414 22.9583 33.7514 23.0046Z" fill="white"/>
</g>
<defs>
<clipPath id="clip0_3900_5">
<rect width="37" height="37" fill="white" transform="translate(6 6)"/>
</clipPath>
</defs>
</svg>
